<svg xmlns="http://www.w3.org/2000/svg" width="256" height="256" viewBox="0 0 100 100"><rect width="100" height="100" rx="20" fill="#fafafa"></rect><path fill="#787178" d="M26.88 82.43L26.88 82.43Q17.22 82.43 11.15 76.08Q5.09 69.73 5.09 59.10L5.09 59.10L5.09 57.60Q5.09 50.53 7.79 44.97Q10.49 39.41 15.35 36.27Q20.21 33.13 25.87 33.13L25.87 33.13Q35.15 33.13 40.29 39.23Q45.43 45.34 45.43 56.72L45.43 56.72L45.43 60.11L13.22 60.11Q13.39 67.14 17.33 71.47Q21.26 75.80 27.32 75.80L27.32 75.80Q31.63 75.80 34.62 74.04Q37.61 72.28 39.85 69.38L39.85 69.38L44.81 73.25Q38.84 82.43 26.88 82.43ZM25.87 39.80L25.87 39.80Q20.95 39.80 17.61 43.39Q14.27 46.97 13.48 53.43L13.48 53.43L37.30 53.43L37.30 52.81Q36.95 46.62 33.96 43.21Q30.97 39.80 25.87 39.80ZM64.59 17.57L64.59 74.65L94.91 74.65L94.91 81.55L56.11 81.55L56.11 17.57L64.59 17.57Z"></path></svg>